<svg xmlns="http://www.w3.org/2000/svg" width="155.381" height="68.779" viewBox="0 0 155.381 68.779"><g transform="translate(-145.854 -34.533)"><path d="M187.119,108.478a67.664,67.664,0,1,1,135.328,0" transform="translate(-30.765 -6.281)" fill="#030504"/><path d="M155.381,1H0V-1H155.381Z" transform="translate(145.854 102.313)" fill="#030504"/><path d="M308.124,193.012a31.364,31.364,0,1,1,62.729,0" transform="translate(-115.77 -90.699)" fill="#72b19e"/><path d="M382.588,246.256a8.794,8.794,0,1,1,17.587,0" transform="translate(-168.234 -143.666)" fill="#030504"/><path d="M377.361,204.933h-1a26.161,26.161,0,0,0-52.323,0h-1a27.161,27.161,0,1,1,54.323,0Z" transform="translate(-126.684 -102.314)" fill="#030504"/></g></svg>